# xmcd
#
# Track frame offsets: 
#        150
#        18194
#        43058
#        64778
#        78715
#        105561
#        122662
#        141463
#        159559
#        184100
#
# Disc length: 2779 seconds
#
# Revision: 1
# Processed by: cddbd v1.5.2PL0 Copyright (c) Steve Scherf et al.
# Submitted via: ExactAudioCopy v0.99pb4
#
DISCID=860ad90a
DTITLE=Larry Miller - Outlaw Blues
DYEAR=2006
DGENRE=Blues/Rock
TTITLE0=Shame on you
TTITLE1=Writing's on the wall
TTITLE2=Calling all the angels
TTITLE3=Rebekah
TTITLE4=Storm comin'
TTITLE5=Professor Casanova
TTITLE6=Only one woman i want
TTITLE7=Outlaw Blues
TTITLE8=Blues forever
TTITLE9=Klondike
EXTD=YEAR: 2006
EXTT0=
EXTT1=
EXTT2=
EXTT3=
EXTT4=
EXTT5=
EXTT6=
EXTT7=
EXTT8=
EXTT9=
PLAYORDER=
